<svg width="50" height="50" viewBox="0 0 50 50" fill="none" xmlns="http://www.w3.org/2000/svg">
<g clip-path="url(#clip0_649_2)">
<path d="M42.3271 9.10381C39.1403 7.6416 35.7229 6.56426 32.1498 5.94717C32.0847 5.93526 32.0197 5.96504 31.9862 6.02451C31.5466 6.80625 31.0598 7.82598 30.7189 8.62754C26.8758 8.05215 23.0524 8.05215 19.2881 8.62754C18.9471 7.8082 18.4426 6.80625 18.0011 6.02451C17.9676 5.96699 17.9026 5.93721 17.8375 5.94717C14.2665 6.56221 10.8491 7.63955 7.66021 9.10381C7.63257 9.11572 7.60894 9.13555 7.59321 9.16133C1.11118 18.8454 -0.664599 28.2915 0.206494 37.6204C0.210401 37.666 0.236084 37.7097 0.271534 37.7375C4.54819 40.8782 8.69097 42.7849 12.7567 44.0487C12.8217 44.0686 12.8907 44.0448 12.9321 43.9912C13.8938 42.6778 14.7511 41.293 15.4862 39.8366C15.5295 39.7514 15.4881 39.6501 15.3995 39.6164C14.0396 39.1006 12.7448 38.4716 11.4992 37.7574C11.4006 37.6999 11.3927 37.559 11.4834 37.4915C11.7456 37.2951 12.0078 37.0907 12.2581 36.8844C12.3034 36.8467 12.3665 36.8388 12.4197 36.8625C20.6025 40.5985 29.4614 40.5985 37.5476 36.8625C37.6008 36.8367 37.6639 36.8447 37.7112 36.8823C37.9616 37.0887 38.2237 37.295 38.4877 37.4914C38.5784 37.5589 38.5724 37.6998 38.474 37.7573C37.2284 38.4855 35.9335 39.1005 34.5717 39.6144C34.4831 39.648 34.4436 39.7513 34.4871 39.8365C35.2379 41.2908 36.0953 42.6757 37.0392 43.9892C37.0787 44.0447 37.1496 44.0686 37.2146 44.0486C41.3001 42.7849 45.4428 40.8781 49.7195 37.7374C49.757 37.7097 49.7806 37.668 49.7845 37.6224C50.8271 26.8371 48.0383 17.4685 42.3919 9.16328C42.3783 9.13555 42.3546 9.11572 42.3271 9.10381ZM16.7083 31.94C14.2448 31.94 12.2148 29.6783 12.2148 26.9006C12.2148 24.1229 14.2053 21.8611 16.7083 21.8611C19.2309 21.8611 21.2413 24.1428 21.2018 26.9006C21.2018 29.6783 19.2112 31.94 16.7083 31.94ZM33.3223 31.94C30.8588 31.94 28.8289 29.6783 28.8289 26.9006C28.8289 24.1229 30.8194 21.8611 33.3223 21.8611C35.845 21.8611 37.8552 24.1428 37.8159 26.9006C37.8159 29.6783 35.8451 31.94 33.3223 31.94Z" fill="#5865F2"/>
</g>
<defs>
<clipPath id="clip0_649_2">
<rect width="50" height="50" fill="white"/>
</clipPath>
</defs>
</svg>
